#!OML:ASF I:\golf\golf\golf 2\Subject 1\2002-09-07\Subject1.ASF
:FULLY-SPECIFIED
:DEGREES
162
root 1.54265 17.8401 -6.40262 18.2722 4.97153 -6.16904
lowerback 7.3017 2.04234 -1.73848
upperback 6.54125 2.56603 5.85465
thorax 2.36635 1.09957 6.96743
lowerneck -16.2448 -1.61093 -1.30262
upperneck 39.5557 1.19491 -7.31833
head 17.3074 -0.659874 -2.85085
rclavicle -1.11319e-014 -4.13472e-014
rhumerus -9.90751 9.58708 -79.0353
rradius 29.621
rwrist -10.7008
rhand -22.8803 13.0331
rfingers 7.12502
rthumb 3.55867 -16.917
lclavicle -1.11319e-014 -4.13472e-014
lhumerus -29.26 -28.5467 97.8914
lradius 46.7654
lwrist 13.1694
lhand -18.8761 30.4037
lfingers 7.12502
lthumb 7.42478 60.2534
rfemur -46.3539 -1.526 23.6074
rtibia 29.9845
rfoot -4.54258 -7.19227
rtoes 1.34029
lfemur -28.2011 1.09064 -14.9708
ltibia 35.4397
lfoot -21.9986 -4.11789
ltoes 2.82171
163
root 1.51746 17.8402 -6.36955 18.5645 5.50211 -6.00732
lowerback 7.57281 2.04643 -1.74942
upperback 6.67298 2.56959 5.94491
thorax 2.35119 1.09716 7.06556
lowerneck -16.4138 -1.71709 -1.39435
upperneck 39.513 1.05675 -7.26775
head 17.3194 -0.720889 -2.83675
rclavicle 2.90226e-014 1.59028e-015
rhumerus -9.4947 9.70691 -78.7196
rradius 29.8109
rwrist -11.1729
rhand -22.9459 13.1626
rfingers 7.12502
rthumb 3.49533 -16.7885
lclavicle 2.90226e-014 1.59028e-015
lhumerus -29.5609 -29.1218 98.3786
lradius 47.125
lwrist 13.6134
lhand -19.0231 29.619
lfingers 7.12502
lthumb 7.28287 59.4737
rfemur -46.712 -1.18248 23.2584
rtibia 29.267
rfoot -4.44715 -7.35048
rtoes 0.228599
lfemur -28.4804 1.00372 -14.9676
ltibia 35.3432
lfoot -22.0639 -4.38179
ltoes 2.22822
164
root 1.49039 17.8368 -6.3366 18.8932 6.00594 -5.81529
lowerback 7.81813 2.10525 -1.77939
upperback 6.78095 2.64602 5.9697
thorax 2.31705 1.13305 7.09927
lowerneck -16.5033 -1.93301 -1.44475
upperneck 39.5371 0.6676 -7.04535
head 17.3294 -0.852258 -2.79968
rclavicle 7.95139e-016 3.18055e-014
rhumerus -9.12371 9.50254 -78.5347
rradius 29.8233
rwrist -11.3833
rhand -23.2263 13.5127
rfingers 7.12502
rthumb 3.22459 -16.4426
lclavicle 7.95139e-016 3.18055e-014
lhumerus -29.9774 -29.9035 98.8238
lradius 47.4699
lwrist 14.2226
lhand -19.4822 28.6205
lfingers 7.12502
lthumb 6.83971 58.49
rfemur -47.1139 -0.94598 22.9203
rtibia 28.6366
rfoot -4.61164 -7.28438
rtoes -0.0728076
lfemur -28.8072 0.770718 -14.9641
ltibia 35.2715
lfoot -22.1098 -4.4883
ltoes 1.47489
165
root 1.46025 17.8323 -6.30707 19.264 6.54965 -5.76034
lowerback 8.18334 2.10789 -1.64446
upperback 6.80637 2.66077 6.02506
thorax 2.14332 1.14816 7.06749
lowerneck -16.4244 -2.09737 -1.53863
upperneck 39.3856 0.357357 -6.8341
head 17.2051 -0.958193 -2.73104
rclavicle 1.11319e-014 -4.77083e-014
rhumerus -8.74847 9.17231 -78.3782
rradius 29.7956
rwrist -11.0816
rhand -23.2092 13.7088
rfingers 7.12502
rthumb 3.24111 -16.2463
lclavicle 1.11319e-014 -4.77083e-014
lhumerus -30.5183 -30.466 99.2963
lradius 47.8602
lwrist 14.7783
lhand -19.9538 27.9488
lfingers 7.12502
lthumb 6.3844 57.8326
rfemur -47.6021 -0.607196 22.6885
rtibia 28.1053
rfoot -5.00208 -7.13279
rtoes -0.0457957
lfemur -29.2448 0.816312 -14.8203
ltibia 35.2074
lfoot -22.1644 -4.95441
ltoes 0.941708
166
root 1.4329 17.8284 -6.27014 19.6405 7.05126 -5.62148
lowerback 8.58484 2.07934 -1.55779
upperback 6.79343 2.63455 6.07251
thorax 1.91368 1.14297 7.05601
lowerneck -16.3244 -2.24985 -1.62363
upperneck 39.1242 0.123434 -6.79194
head 17.0236 -1.05525 -2.72059
rclavicle 8.74653e-015 6.20208e-014
rhumerus -8.36404 9.00517 -78.1755
rradius 29.7943
rwrist -10.6578
rhand -23.0358 13.509
rfingers 7.12502
rthumb 3.40855 -16.4434
lclavicle 8.74653e-015 6.20208e-014
lhumerus -31.0996 -30.7162 99.8019
lradius 48.2937
lwrist 15.0689
lhand -19.8939 27.7794
lfingers 7.12502
lthumb 6.44221 57.6614
rfemur -48.0523 -0.388145 22.4134
rtibia 27.6665
rfoot -5.39576 -6.77897
rtoes -0.608625
lfemur -29.6156 0.842278 -14.788
ltibia 35.1271
lfoot -22.1873 -5.39789
ltoes 0.813219
167
root 1.40789 17.8262 -6.22605 20.0005 7.5388 -5.33606
lowerback 8.51639 2.0747 -1.7043
upperback 7.08962 2.6089 6.19774
thorax 2.25802 1.10857 7.29097
lowerneck -16.403 -2.38125 -1.67697
upperneck 38.8422 -0.0235336 -6.89288
head 16.8846 -1.1327 -2.76783
rclavicle -1.59028e-014 -1.51076e-014
rhumerus -7.59473 9.13731 -77.7107
rradius 29.9127
rwrist -10.6979
rhand -23.0272 12.9007
rfingers 7.12502
rthumb 3.41684 -17.0516
lclavicle -1.59028e-014 -1.51076e-014
lhumerus -31.0785 -31.087 100.235
lradius 48.6134
lwrist 15.2849
lhand -19.6529 27.8699
lfingers 7.12502
lthumb 6.67494 57.7447
rfemur -48.4369 -0.431535 22.1051
rtibia 27.3227
rfoot -5.72289 -6.25997
rtoes -1.37252
lfemur -29.8717 0.53141 -14.8643
ltibia 35.0274
lfoot -22.0834 -5.57444
ltoes 1.87238
